# xmcd
#
# Track frame offsets:
#  210
#  12411
#  28191
#  47602
#  60652
#  76203
#  89435
#  109367
#  126063
#  141459
#  156439
#  173641
#  189384
#  204462
#  235568
#
# Disc length: 3407 seconds
#
# Revision: 0
# Processed by: cddbd v1.5.1PL0 Copyright (c) Steve Scherf et al.
# Submitted via: Collectorz.com_Music_Collector 6.9
#
DISCID=c80d4d0f
DTITLE=Various Artist - Chicago's Best West - And Southside Blues Singers
DYEAR=2004
DGENRE=Blues -  Blues Chicago
TTITLE0=Lovie Lee - Ain't No Hand Me Down
TTITLE1=Lovie Lee - Tell Me Baby
TTITLE2=Foree Superstar Montgomery - Standing At The Crossroads
TTITLE3=Foree Superstar Montgomery - Wonder Why
TTITLE4=Larry Taylor - Bad Boy
TTITLE5=Larry Taylor - My Baby's Gone
TTITLE6=Larry Taylor - Yes, I Love You
TTITLE7=Hip LinkChain - Saddle My Pony
TTITLE8=Hip LinkChain - Goin' Away Blues
TTITLE9=George Baze - Park My Car
TTITLE10=George Baze - Hush Hush
TTITLE11=Johnny Laws - I You Cannot Be True
TTITLE12=Eddie Taylor - Ride 'em Down
TTITLE13=Lefty Dizz - Bad Avenue
TTITLE14=Lefty Dizz - I Could Get My Hands On You
EXTD=
EXTT0=
EXTT1=
EXTT2=
EXTT3=
EXTT4=
EXTT5=
EXTT6=
EXTT7=
EXTT8=
EXTT9=
EXTT10=
EXTT11=
EXTT12=
EXTT13=
EXTT14=
PLAYORDER=
